<?xml version="1.0" encoding="UTF-8" standalone="no"?>
<!-- Generated by graphviz version 2.26.3 (20100126.1600)
 -->

<!-- Title: controllers_diagram Pages: 1 -->

<svg
   xmlns:dc="http://purl.org/dc/elements/1.1/"
   xmlns:cc="http://creativecommons.org/ns#"
   xmlns:rdf="http://www.w3.org/1999/02/22-rdf-syntax-ns#"
   xmlns:svg="http://www.w3.org/2000/svg"
   xmlns="http://www.w3.org/2000/svg"
   xmlns:sodipodi="http://sodipodi.sourceforge.net/DTD/sodipodi-0.dtd"
   xmlns:inkscape="http://www.inkscape.org/namespaces/inkscape"
   width="745pt"
   height="497pt"
   viewBox="0.00 0.00 745.00 497.00"
   id="svg2"
   version="1.1"
   inkscape:version="0.48.3.1 r9886"
   sodipodi:docname="controllers_brief.svg">
  <metadata
     id="metadata96">
    <rdf:RDF>
      <cc:Work
         rdf:about="">
        <dc:format>image/svg+xml</dc:format>
        <dc:type
           rdf:resource="http://purl.org/dc/dcmitype/StillImage" />
      </cc:Work>
    </rdf:RDF>
  </metadata>
  <defs
     id="defs94" />
  <sodipodi:namedview
     pagecolor="#ffffff"
     bordercolor="#666666"
     borderopacity="1"
     objecttolerance="10"
     gridtolerance="10"
     guidetolerance="10"
     inkscape:pageopacity="0"
     inkscape:pageshadow="2"
     inkscape:window-width="1920"
     inkscape:window-height="1022"
     id="namedview92"
     showgrid="false"
     inkscape:zoom="1.1554362"
     inkscape:cx="344.78572"
     inkscape:cy="254.2174"
     inkscape:window-x="0"
     inkscape:window-y="30"
     inkscape:window-maximized="1"
     inkscape:current-layer="graph1" />
  <g
     id="graph1"
     class="graph"
     transform="scale(1 1) rotate(0) translate(4 493)">
    <title
       id="title5">controllers_diagram</title>
    <polygon
       fill="white"
       stroke="white"
       points="-4,5 -4,-493 742,-493 742,5 -4,5"
       id="polygon7" />
    <!-- _diagram_info -->
    <!-- Api::V1::AdminsController -->
    <g
       id="node2"
       class="node">
      <title
         id="title23">Api::V1::AdminsController</title>
      <ellipse
         fill="none"
         stroke="black"
         cx="228"
         cy="-394.5"
         rx="137.179"
         ry="18.3848"
         id="ellipse25"
         d="m 365.179,-394.5 c 0,10.15364 -61.41713,18.3848 -137.179,18.3848 -75.76187,0 -137.179001,-8.23116 -137.179001,-18.3848 0,-10.15364 61.417131,-18.3848 137.179001,-18.3848 75.76187,0 137.179,8.23116 137.179,18.3848 z" />
      <text
         text-anchor="middle"
         x="228"
         y="-390.9"
         font-family="Times Roman,serif"
         font-size="14.00"
         id="text27">Api::V1::AdminsController</text>
    </g>
    <!-- Api::V1::BranchesController -->
    <g
       id="node3"
       class="node">
      <title
         id="title30">Api::V1::BranchesController</title>
      <ellipse
         fill="none"
         stroke="black"
         cx="403"
         cy="-94.5"
         rx="147.078"
         ry="18.3848"
         id="ellipse32"
         d="m 550.078,-94.5 c 0,10.153645 -65.84906,18.3848 -147.078,18.3848 -81.22894,0 -147.078,-8.231155 -147.078,-18.3848 0,-10.15364 65.84906,-18.3848 147.078,-18.3848 81.22894,0 147.078,8.23116 147.078,18.3848 z" />
      <text
         text-anchor="middle"
         x="403"
         y="-90.9"
         font-family="Times Roman,serif"
         font-size="14.00"
         id="text34">Api::V1::BranchesController</text>
    </g>
    <!-- Api::V1::UsersController -->
    <g
       id="node4"
       class="node">
      <title
         id="title37">Api::V1::UsersController</title>
      <ellipse
         fill="none"
         stroke="black"
         cx="159.5"
         cy="-319.5"
         rx="128.193"
         ry="18.3848"
         id="ellipse39"
         d="m 287.69299,-319.5 c 0,10.15364 -57.39395,18.3848 -128.19299,18.3848 -70.799035,0 -128.192993,-8.23116 -128.192993,-18.3848 0,-10.15364 57.393958,-18.3848 128.192993,-18.3848 70.79904,0 128.19299,8.23116 128.19299,18.3848 z" />
      <text
         text-anchor="middle"
         x="159.5"
         y="-315.9"
         font-family="Times Roman,serif"
         font-size="14.00"
         id="text41">Api::V1::UsersController</text>
    </g>
    <!-- Api::V1::ReportsController -->
    <g
       id="node5"
       class="node">
      <title
         id="title44">Api::V1::ReportsController</title>
      <ellipse
         fill="none"
         stroke="black"
         cx="395.5"
         cy="-19.5"
         rx="138.801"
         ry="18.3848"
         id="ellipse46"
         d="m 534.30099,-19.5 c 0,10.1536446 -62.14332,18.3848 -138.80099,18.3848 -76.65767,0 -138.80099,-8.2311554 -138.80099,-18.3848 0,-10.153645 62.14332,-18.3848 138.80099,-18.3848 76.65767,0 138.80099,8.231155 138.80099,18.3848 z" />
      <text
         text-anchor="middle"
         x="395.5"
         y="-15.9"
         font-family="Times Roman,serif"
         font-size="14.00"
         id="text48">Api::V1::ReportsController</text>
    </g>
    <!-- Api::V1::ClientsController -->
    <g
       id="node6"
       class="node">
      <title
         id="title51">Api::V1::ClientsController</title>
      <ellipse
         fill="none"
         stroke="black"
         cx="601"
         cy="-439.5"
         rx="135.057"
         ry="18.3848"
         id="ellipse53"
         d="m 736.05701,-439.5 c 0,10.15364 -60.46708,18.3848 -135.05701,18.3848 -74.58993,0 -135.05701,-8.23116 -135.05701,-18.3848 0,-10.15364 60.46708,-18.3848 135.05701,-18.3848 74.58993,0 135.05701,8.23116 135.05701,18.3848 z" />
      <text
         text-anchor="middle"
         x="601"
         y="-435.9"
         font-family="Times Roman,serif"
         font-size="14.00"
         id="text55">Api::V1::ClientsController</text>
    </g>
    <!-- Api::V1::SessionsController -->
    <g
       id="node7"
       class="node">
      <title
         id="title58">Api::V1::SessionsController</title>
      <ellipse
         fill="none"
         stroke="black"
         cx="534.5"
         cy="-364.5"
         rx="143.043"
         ry="18.3848"
         id="ellipse60"
         d="m 677.543,-364.5 c 0,10.15364 -64.04253,18.3848 -143.043,18.3848 -79.00047,0 -143.043,-8.23116 -143.043,-18.3848 0,-10.15364 64.04253,-18.3848 143.043,-18.3848 79.00047,0 143.043,8.23116 143.043,18.3848 z" />
      <text
         text-anchor="middle"
         x="534.5"
         y="-360.9"
         font-family="Times Roman,serif"
         font-size="14.00"
         id="text62">Api::V1::SessionsController</text>
    </g>
    <!-- Api::V1::GroupsController -->
    <g
       id="node8"
       class="node">
      <title
         id="title65">Api::V1::GroupsController</title>
      <ellipse
         fill="none"
         stroke="black"
         cx="303"
         cy="-469.5"
         rx="137.179"
         ry="18.3848"
         id="ellipse67"
         d="m 440.179,-469.5 c 0,10.15364 -61.41713,18.3848 -137.179,18.3848 -75.76187,0 -137.179,-8.23116 -137.179,-18.3848 0,-10.15364 61.41713,-18.3848 137.179,-18.3848 75.76187,0 137.179,8.23116 137.179,18.3848 z" />
      <text
         text-anchor="middle"
         x="303"
         y="-465.9"
         font-family="Times Roman,serif"
         font-size="14.00"
         id="text69">Api::V1::GroupsController</text>
    </g>
    <!-- Api::V1::MessagesController -->
    <g
       id="node9"
       class="node">
      <title
         id="title72">Api::V1::MessagesController</title>
      <ellipse
         fill="none"
         stroke="black"
         cx="554"
         cy="-169.5"
         rx="147.785"
         ry="18.3848"
         id="ellipse74"
         d="m 701.785,-169.5 c 0,10.15364 -66.1656,18.3848 -147.785,18.3848 -81.6194,0 -147.785,-8.23116 -147.785,-18.3848 0,-10.15364 66.1656,-18.3848 147.785,-18.3848 81.6194,0 147.785,8.23116 147.785,18.3848 z" />
      <text
         text-anchor="middle"
         x="554"
         y="-165.9"
         font-family="Times Roman,serif"
         font-size="14.00"
         id="text76">Api::V1::MessagesController</text>
    </g>
    <!-- Api::V1::EmployeesController -->
    <g
       id="node10"
       class="node">
      <title
         id="title79">Api::V1::EmployeesController</title>
      <ellipse
         fill="none"
         stroke="black"
         cx="470"
         cy="-289.5"
         rx="154.149"
         ry="18.3848"
         id="ellipse81"
         d="m 624.149,-289.5 c 0,10.15364 -69.01486,18.3848 -154.149,18.3848 -85.13414,0 -154.149,-8.23116 -154.149,-18.3848 0,-10.15364 69.01486,-18.3848 154.149,-18.3848 85.13414,0 154.149,8.23116 154.149,18.3848 z" />
      <text
         text-anchor="middle"
         x="470"
         y="-285.9"
         font-family="Times Roman,serif"
         font-size="14.00"
         id="text83">Api::V1::EmployeesController</text>
    </g>
    <!-- ApplicationController -->
    <g
       id="node11"
       class="node">
      <title
         id="title86">ApplicationController</title>
      <ellipse
         fill="none"
         stroke="black"
         cx="115"
         cy="-94.5"
         rx="113.844"
         ry="18.3848"
         id="ellipse88"
         d="m 228.844,-94.5 c 0,10.153645 -50.96969,18.3848 -113.844,18.3848 -62.874306,0 -113.8440018,-8.231155 -113.8440018,-18.3848 0,-10.15364 50.9696958,-18.3848 113.8440018,-18.3848 62.87431,0 113.844,8.23116 113.844,18.3848 z" />
      <text
         text-anchor="middle"
         x="115"
         y="-90.9"
         font-family="Times Roman,serif"
         font-size="14.00"
         id="text90">ApplicationController</text>
    </g>
  </g>
</svg>
