<?xml version="1.0" encoding="UTF-8" standalone="no"?>
<!-- Generated by graphviz version 2.26.3 (20100126.1600)
 -->

<!-- Title: models_diagram Pages: 1 -->

<svg
   xmlns:dc="http://purl.org/dc/elements/1.1/"
   xmlns:cc="http://creativecommons.org/ns#"
   xmlns:rdf="http://www.w3.org/1999/02/22-rdf-syntax-ns#"
   xmlns:svg="http://www.w3.org/2000/svg"
   xmlns="http://www.w3.org/2000/svg"
   xmlns:sodipodi="http://sodipodi.sourceforge.net/DTD/sodipodi-0.dtd"
   xmlns:inkscape="http://www.inkscape.org/namespaces/inkscape"
   width="1245pt"
   height="482pt"
   viewBox="0.00 0.00 1245.00 482.00"
   id="svg2"
   version="1.1"
   inkscape:version="0.48.3.1 r9886"
   sodipodi:docname="models_brief.svg">
  <metadata
     id="metadata453">
    <rdf:RDF>
      <cc:Work
         rdf:about="">
        <dc:format>image/svg+xml</dc:format>
        <dc:type
           rdf:resource="http://purl.org/dc/dcmitype/StillImage" />
      </cc:Work>
    </rdf:RDF>
  </metadata>
  <defs
     id="defs451" />
  <sodipodi:namedview
     pagecolor="#ffffff"
     bordercolor="#666666"
     borderopacity="1"
     objecttolerance="10"
     gridtolerance="10"
     guidetolerance="10"
     inkscape:pageopacity="0"
     inkscape:pageshadow="2"
     inkscape:window-width="1920"
     inkscape:window-height="1022"
     id="namedview449"
     showgrid="false"
     inkscape:zoom="0.97779521"
     inkscape:cx="707.7687"
     inkscape:cy="491.76257"
     inkscape:window-x="0"
     inkscape:window-y="30"
     inkscape:window-maximized="1"
     inkscape:current-layer="graph1" />
  <g
     id="graph1"
     class="graph"
     transform="scale(1 1) rotate(0) translate(4 478)">
    <title
       id="title5">models_diagram</title>
    <polygon
       fill="white"
       stroke="white"
       points="-4,5 -4,-478 1242,-478 1242,5 -4,5"
       id="polygon7" />
    <!-- _diagram_info -->
    <!-- BranchReport -->
    <g
       id="node2"
       class="node">
      <title
         id="title23">BranchReport</title>
      <polygon
         fill="none"
         stroke="black"
         points="566,-445 456,-445 456,-409 566,-409 566,-445"
         id="polygon25" />
      <text
         text-anchor="middle"
         x="511"
         y="-423.4"
         font-family="Times Roman,serif"
         font-size="14.00"
         id="text27">BranchReport</text>
    </g>
    <!-- Response -->
    <g
       id="node3"
       class="node">
      <title
         id="title30">Response</title>
      <ellipse
         fill="none"
         stroke="black"
         cx="57"
         cy="-95"
         rx="56.7776"
         ry="18.3848"
         id="ellipse32"
         d="m 113.7776,-95 c 0,10.153645 -25.420198,18.3848 -56.7776,18.3848 -31.357402,0 -56.77759933,-8.231155 -56.77759933,-18.3848 0,-10.15364 25.42019733,-18.3848 56.77759933,-18.3848 31.357402,0 56.7776,8.23116 56.7776,18.3848 z" />
      <text
         text-anchor="middle"
         x="57"
         y="-91.4"
         font-family="Times Roman,serif"
         font-size="14.00"
         id="text34">Response</text>
    </g>
    <!-- BranchResponse -->
    <g
       id="node4"
       class="node">
      <title
         id="title37">BranchResponse</title>
      <ellipse
         fill="none"
         stroke="black"
         cx="227"
         cy="-19"
         rx="91.9239"
         ry="18.3848"
         id="ellipse39"
         d="m 318.9239,-19 c 0,10.1536446 -41.15573,18.38479996 -91.9239,18.38479996 -50.76817,0 -91.9239,-8.23115536 -91.9239,-18.38479996 0,-10.153645 41.15573,-18.3848 91.9239,-18.3848 50.76817,0 91.9239,8.231155 91.9239,18.3848 z" />
      <text
         text-anchor="middle"
         x="227"
         y="-15.4"
         font-family="Times Roman,serif"
         font-size="14.00"
         id="text41">BranchResponse</text>
    </g>
    <!-- Response&#45;&gt;BranchResponse -->
    <g
       id="edge2"
       class="edge">
      <title
         id="title44">Response-&gt;BranchResponse</title>
      <path
         fill="none"
         stroke="#1129b5"
         d="M98.1521,-76.6026C122.803,-65.582 154.231,-51.5322 179.876,-40.0674"
         id="path46" />
      <ellipse
         fill="none"
         stroke="#1129b5"
         cx="94.2382"
         cy="-78.3523"
         rx="4.00002"
         ry="4.00002"
         id="ellipse48"
         d="m 98.238217,-78.352303 c 0,2.209151 -1.79087,4.00002 -4.00002,4.00002 -2.20915,0 -4.00002,-1.790869 -4.00002,-4.00002 0,-2.20915 1.79087,-4.00002 4.00002,-4.00002 2.20915,0 4.00002,1.79087 4.00002,4.00002 z" />
      <polygon
         fill="#1129b5"
         stroke="#1129b5"
         points="179.91,-40.0523 190.875,-40.079 184.474,-38.0116 189.039,-35.9709 189.039,-35.9709 189.039,-35.9709 184.474,-38.0116 187.202,-31.8627 179.91,-40.0523 179.91,-40.0523"
         id="polygon50" />
    </g>
    <!-- Report -->
    <g
       id="node5"
       class="node">
      <title
         id="title53">Report</title>
      <ellipse
         fill="none"
         stroke="black"
         cx="670"
         cy="-323"
         rx="43.8406"
         ry="18.3848"
         id="ellipse55"
         d="m 713.8406,-323 c 0,10.15364 -19.62811,18.3848 -43.8406,18.3848 -24.21249,0 -43.8406,-8.23116 -43.8406,-18.3848 0,-10.15364 19.62811,-18.3848 43.8406,-18.3848 24.21249,0 43.8406,8.23116 43.8406,18.3848 z" />
      <text
         text-anchor="middle"
         x="670"
         y="-319.4"
         font-family="Times Roman,serif"
         font-size="14.00"
         id="text57">Report</text>
    </g>
    <!-- Group -->
    <g
       id="node6"
       class="node">
      <title
         id="title60">Group</title>
      <ellipse
         fill="none"
         stroke="black"
         cx="589"
         cy="-247"
         rx="41.2167"
         ry="18.3848"
         id="ellipse62"
         d="m 630.2167,-247 c 0,10.15364 -18.45334,18.3848 -41.2167,18.3848 -22.76336,0 -41.2167,-8.23116 -41.2167,-18.3848 0,-10.15364 18.45334,-18.3848 41.2167,-18.3848 22.76336,0 41.2167,8.23116 41.2167,18.3848 z" />
      <text
         text-anchor="middle"
         x="589"
         y="-243.4"
         font-family="Times Roman,serif"
         font-size="14.00"
         id="text64">Group</text>
    </g>
    <!-- Report&#45;&gt;Group -->
    <g
       id="edge6"
       class="edge">
      <title
         id="title67">Report-&gt;Group</title>
      <path
         fill="none"
         stroke="#f7bbdf"
         d="M652.875,-296.538C649.513,-292.138 645.832,-287.782 642,-284 636.103,-278.181 629.2,-272.64 622.36,-267.702"
         id="path69" />
      <polygon
         fill="#f7bbdf"
         stroke="#f7bbdf"
         points="653.062,-296.798 655.251,-307.543 655.982,-300.856 658.903,-304.914 658.903,-304.914 658.903,-304.914 655.982,-300.856 662.556,-302.286 653.062,-296.798 653.062,-296.798"
         id="polygon71" />
      <polygon
         fill="#f7bbdf"
         stroke="#f7bbdf"
         points="622.038,-267.48 616.371,-258.092 617.925,-264.637 613.812,-261.794 613.812,-261.794 613.812,-261.794 617.925,-264.637 611.254,-265.496 622.038,-267.48 622.038,-267.48"
         id="polygon73" />
    </g>
    <!-- Page -->
    <g
       id="node11"
       class="node">
      <title
         id="title76">Page</title>
      <ellipse
         fill="none"
         stroke="black"
         cx="477"
         cy="-247"
         rx="34.8574"
         ry="18.3848"
         id="ellipse78"
         d="m 511.8574,-247 c 0,10.15364 -15.60619,18.3848 -34.8574,18.3848 -19.25121,0 -34.8574,-8.23116 -34.8574,-18.3848 0,-10.15364 15.60619,-18.3848 34.8574,-18.3848 19.25121,0 34.8574,8.23116 34.8574,18.3848 z" />
      <text
         text-anchor="middle"
         x="477"
         y="-243.4"
         font-family="Times Roman,serif"
         font-size="14.00"
         id="text80">Page</text>
    </g>
    <!-- Report&#45;&gt;Page -->
    <g
       id="edge8"
       class="edge">
      <title
         id="title83">Report-&gt;Page</title>
      <path
         fill="none"
         stroke="#d5d279"
         d="M630.03,-307.26C596.147,-293.918 547.905,-274.921 514.689,-261.841"
         id="path85" />
      <ellipse
         fill="none"
         stroke="#d5d279"
         cx="633.974"
         cy="-308.814"
         rx="4.00001"
         ry="4.00001"
         id="ellipse87"
         d="m 637.97401,-308.814 c 0,2.20915 -1.79087,4.00001 -4.00001,4.00001 -2.20915,0 -4.00001,-1.79086 -4.00001,-4.00001 0,-2.20914 1.79086,-4.00001 4.00001,-4.00001 2.20914,0 4.00001,1.79087 4.00001,4.00001 z" />
      <polygon
         fill="#d5d279"
         stroke="#d5d279"
         points="514.624,-261.816 506.969,-253.965 509.972,-259.984 505.32,-258.152 505.32,-258.152 505.32,-258.152 509.972,-259.984 503.671,-262.339 514.624,-261.816 514.624,-261.816"
         id="polygon89" />
    </g>
    <!-- GroupReport -->
    <g
       id="node12"
       class="node">
      <title
         id="title92">GroupReport</title>
      <ellipse
         fill="none"
         stroke="black"
         cx="936"
         cy="-95"
         rx="74.2462"
         ry="18.3848"
         id="ellipse94"
         d="m 1010.2462,-95 c 0,10.153645 -33.24116,18.3848 -74.2462,18.3848 -41.00504,0 -74.2462,-8.231155 -74.2462,-18.3848 0,-10.15364 33.24116,-18.3848 74.2462,-18.3848 41.00504,0 74.2462,8.23116 74.2462,18.3848 z" />
      <text
         text-anchor="middle"
         x="936"
         y="-91.4"
         font-family="Times Roman,serif"
         font-size="14.00"
         id="text96">GroupReport</text>
    </g>
    <!-- Report&#45;&gt;GroupReport -->
    <g
       id="edge4"
       class="edge">
      <title
         id="title99">Report-&gt;GroupReport</title>
      <path
         fill="none"
         stroke="#0434d1"
         d="M686.025,-298.316C710.445,-262.263 760.079,-194.846 816,-152 836.425,-136.351 861.838,-123.516 884.012,-114.015"
         id="path101" />
      <ellipse
         fill="none"
         stroke="#0434d1"
         cx="683.71"
         cy="-301.769"
         rx="4.00002"
         ry="4.00002"
         id="ellipse103"
         d="m 687.71004,-301.76901 c 0,2.20915 -1.79087,4.00002 -4.00002,4.00002 -2.20915,0 -4.00002,-1.79087 -4.00002,-4.00002 0,-2.20915 1.79087,-4.00002 4.00002,-4.00002 2.20915,0 4.00002,1.79087 4.00002,4.00002 z" />
      <polygon
         fill="#0434d1"
         stroke="#0434d1"
         points="884.062,-113.994 895.023,-114.302 888.677,-112.071 893.293,-110.148 893.293,-110.148 893.293,-110.148 888.677,-112.071 891.562,-105.994 884.062,-113.994 884.062,-113.994"
         id="polygon105" />
    </g>
    <!-- Message -->
    <g
       id="node9"
       class="node">
      <title
         id="title108">Message</title>
      <ellipse
         fill="none"
         stroke="black"
         cx="589"
         cy="-171"
         rx="53.033"
         ry="18.3848"
         id="ellipse110"
         d="m 642.033,-171 c 0,10.15364 -23.74368,18.3848 -53.033,18.3848 -29.28932,0 -53.033,-8.23116 -53.033,-18.3848 0,-10.15364 23.74368,-18.3848 53.033,-18.3848 29.28932,0 53.033,8.23116 53.033,18.3848 z" />
      <text
         text-anchor="middle"
         x="589"
         y="-167.4"
         font-family="Times Roman,serif"
         font-size="14.00"
         id="text112">Message</text>
    </g>
    <!-- Group&#45;&gt;Message -->
    <g
       id="edge16"
       class="edge">
      <title
         id="title115">Group-&gt;Message</title>
      <path
         fill="none"
         stroke="#ef907f"
         d="M589,-217.938C589,-211.986 589,-205.725 589,-199.783"
         id="path117" />
      <polygon
         fill="#ef907f"
         stroke="#ef907f"
         points="589,-218.213 584.5,-228.213 589,-223.213 589,-228.213 589,-228.213 589,-228.213 589,-223.213 593.5,-228.214 589,-218.213 589,-218.213"
         id="polygon119" />
      <polygon
         fill="#ef907f"
         stroke="#ef907f"
         points="589,-199.57 593.5,-189.57 589,-194.57 589,-189.57 589,-189.57 589,-189.57 589,-194.57 584.5,-189.57 589,-199.57 589,-199.57"
         id="polygon121" />
    </g>
    <!-- GroupsUser -->
    <g
       id="node10"
       class="node">
      <title
         id="title124">GroupsUser</title>
      <ellipse
         fill="none"
         stroke="black"
         cx="894"
         cy="-171"
         rx="68.7979"
         ry="18.3848"
         id="ellipse126"
         d="m 962.7979,-171 c 0,10.15364 -30.80187,18.3848 -68.7979,18.3848 -37.99603,0 -68.7979,-8.23116 -68.7979,-18.3848 0,-10.15364 30.80187,-18.3848 68.7979,-18.3848 37.99603,0 68.7979,8.23116 68.7979,18.3848 z" />
      <text
         text-anchor="middle"
         x="894"
         y="-167.4"
         font-family="Times Roman,serif"
         font-size="14.00"
         id="text128">GroupsUser</text>
    </g>
    <!-- Group&#45;&gt;GroupsUser -->
    <g
       id="edge10"
       class="edge">
      <title
         id="title131">Group-&gt;GroupsUser</title>
      <path
         fill="none"
         stroke="#0d3a36"
         d="M633.116,-236.007C685.854,-222.866 774.38,-200.807 833.482,-186.08"
         id="path133" />
      <ellipse
         fill="none"
         stroke="#0d3a36"
         cx="629.067"
         cy="-237.016"
         rx="4.00001"
         ry="4.00001"
         id="ellipse135"
         d="m 633.06703,-237.01601 c 0,2.20915 -1.79087,4.00001 -4.00001,4.00001 -2.20915,0 -4.00001,-1.79086 -4.00001,-4.00001 0,-2.20914 1.79086,-4.00001 4.00001,-4.00001 2.20914,0 4.00001,1.79087 4.00001,4.00001 z" />
      <polygon
         fill="#0d3a36"
         stroke="#0d3a36"
         points="833.728,-186.019 844.519,-187.967 838.579,-184.81 843.431,-183.601 843.431,-183.601 843.431,-183.601 838.579,-184.81 842.343,-179.234 833.728,-186.019 833.728,-186.019"
         id="polygon137" />
    </g>
    <!-- Group&#45;&gt;GroupReport -->
    <g
       id="edge18"
       class="edge">
      <title
         id="title140">Group-&gt;GroupReport</title>
      <path
         fill="none"
         stroke="#c8e617"
         d="M634.233,-237.167C666.118,-228.598 708.566,-213.743 740,-190 765.606,-170.659 756.248,-149.721 783,-132 785.004,-130.673 831.034,-119.625 872.084,-109.944"
         id="path142" />
      <ellipse
         fill="none"
         stroke="#c8e617"
         cx="630.239"
         cy="-238.206"
         rx="4.00001"
         ry="4.00001"
         id="ellipse144"
         d="m 634.23902,-238.20599 c 0,2.20914 -1.79086,4.00001 -4.00001,4.00001 -2.20914,0 -4.00001,-1.79087 -4.00001,-4.00001 0,-2.20915 1.79087,-4.00001 4.00001,-4.00001 2.20915,0 4.00001,1.79086 4.00001,4.00001 z" />
      <polygon
         fill="#c8e617"
         stroke="#c8e617"
         points="872.101,-109.94 882.867,-112.028 876.968,-108.794 881.835,-107.648 881.835,-107.648 881.835,-107.648 876.968,-108.794 880.804,-103.268 872.101,-109.94 872.101,-109.94"
         id="polygon146" />
    </g>
    <!-- MessageGroup -->
    <g
       id="node13"
       class="node">
      <title
         id="title149">MessageGroup</title>
      <ellipse
         fill="none"
         stroke="black"
         cx="573"
         cy="-95"
         rx="82.939"
         ry="18.3848"
         id="ellipse151"
         d="m 655.939,-95 c 0,10.153645 -37.13305,18.3848 -82.939,18.3848 -45.80595,0 -82.939,-8.231155 -82.939,-18.3848 0,-10.15364 37.13305,-18.3848 82.939,-18.3848 45.80595,0 82.939,8.23116 82.939,18.3848 z" />
      <text
         text-anchor="middle"
         x="573"
         y="-91.4"
         font-family="Times Roman,serif"
         font-size="14.00"
         id="text153">MessageGroup</text>
    </g>
    <!-- Group&#45;&gt;MessageGroup -->
    <g
       id="edge14"
       class="edge">
      <title
         id="title156">Group-&gt;MessageGroup</title>
      <path
         fill="none"
         stroke="#0a8484"
         d="M557.987,-227.036C545.941,-217.443 533.497,-204.798 527,-190 520.211,-174.536 521.376,-167.925 527,-152 531.061,-140.5 538.536,-129.617 546.296,-120.502"
         id="path158" />
      <ellipse
         fill="none"
         stroke="#0a8484"
         cx="561.409"
         cy="-229.63"
         rx="4.00002"
         ry="4.00002"
         id="ellipse160"
         d="m 565.40902,-229.63 c 0,2.20915 -1.79087,4.00002 -4.00002,4.00002 -2.20915,0 -4.00002,-1.79087 -4.00002,-4.00002 0,-2.20915 1.79087,-4.00002 4.00002,-4.00002 2.20915,0 4.00002,1.79087 4.00002,4.00002 z" />
      <polygon
         fill="#0a8484"
         stroke="#0a8484"
         points="546.398,-120.389 556.446,-115.997 549.754,-116.683 553.111,-112.976 553.111,-112.976 553.111,-112.976 549.754,-116.683 549.775,-109.956 546.398,-120.389 546.398,-120.389"
         id="polygon162" />
    </g>
    <!-- User -->
    <g
       id="node14"
       class="node">
      <title
         id="title165">User</title>
      <ellipse
         fill="none"
         stroke="black"
         cx="618"
         cy="-427"
         rx="33.9411"
         ry="18.3848"
         id="ellipse167"
         d="m 651.9411,-427 c 0,10.15364 -15.19595,18.3848 -33.9411,18.3848 -18.74515,0 -33.9411,-8.23116 -33.9411,-18.3848 0,-10.15364 15.19595,-18.3848 33.9411,-18.3848 18.74515,0 33.9411,8.23116 33.9411,18.3848 z" />
      <text
         text-anchor="middle"
         x="618"
         y="-423.4"
         font-family="Times Roman,serif"
         font-size="14.00"
         id="text169">User</text>
    </g>
    <!-- Group&#45;&gt;User -->
    <g
       id="edge12"
       class="edge">
      <title
         id="title172">Group-&gt;User</title>
      <path
         fill="none"
         stroke="#a53628"
         d="M598.627,-275.272C606.254,-308.805 615.223,-364.397 618.464,-398.171"
         id="path174" />
      <polygon
         fill="#a53628"
         stroke="#a53628"
         points="598.547,-274.938 600.582,-264.163 597.377,-270.077 596.207,-265.216 596.207,-265.216 596.207,-265.216 597.377,-270.077 591.832,-266.269 598.547,-274.938 598.547,-274.938"
         id="polygon176" />
      <polygon
         fill="#a53628"
         stroke="#a53628"
         points="618.487,-398.449 614.828,-408.786 618.9,-403.432 619.313,-408.415 619.313,-408.415 619.313,-408.415 618.9,-403.432 623.798,-408.043 618.487,-398.449 618.487,-398.449"
         id="polygon178" />
    </g>
    <!-- Branch -->
    <g
       id="node18"
       class="node">
      <title
         id="title181">Branch</title>
      <ellipse
         fill="none"
         stroke="black"
         cx="396"
         cy="-171"
         rx="45.9619"
         ry="18.3848"
         id="ellipse183"
         d="m 441.9619,-171 c 0,10.15364 -20.57784,18.3848 -45.9619,18.3848 -25.38406,0 -45.9619,-8.23116 -45.9619,-18.3848 0,-10.15364 20.57784,-18.3848 45.9619,-18.3848 25.38406,0 45.9619,8.23116 45.9619,18.3848 z" />
      <text
         text-anchor="middle"
         x="396"
         y="-167.4"
         font-family="Times Roman,serif"
         font-size="14.00"
         id="text185">Branch</text>
    </g>
    <!-- Group&#45;&gt;Branch -->
    <g
       id="edge22"
       class="edge">
      <title
         id="title188">Group-&gt;Branch</title>
      <path
         fill="none"
         stroke="#904c3d"
         d="M543.874,-234.313C507.15,-223.963 461.054,-210.907 459,-210 448.279,-205.266 437.209,-198.962 427.397,-192.805"
         id="path190" />
      <polygon
         fill="#904c3d"
         stroke="#904c3d"
         points="544.313,-234.436 552.718,-241.479 549.126,-235.792 553.939,-237.147 553.939,-237.147 553.939,-237.147 549.126,-235.792 555.159,-232.816 544.313,-234.436 544.313,-234.436"
         id="polygon192" />
      <polygon
         fill="#904c3d"
         stroke="#904c3d"
         points="427.185,-192.668 421.227,-183.461 422.985,-189.954 418.785,-187.241 418.785,-187.241 418.785,-187.241 422.985,-189.954 416.343,-191.021 427.185,-192.668 427.185,-192.668"
         id="polygon194" />
    </g>
    <!-- GroupBranch -->
    <g
       id="node20"
       class="node">
      <title
         id="title197">GroupBranch</title>
      <ellipse
         fill="none"
         stroke="black"
         cx="396"
         cy="-95"
         rx="75.8684"
         ry="18.3848"
         id="ellipse199"
         d="m 471.8684,-95 c 0,10.153645 -33.96744,18.3848 -75.8684,18.3848 -41.90096,0 -75.8684,-8.231155 -75.8684,-18.3848 0,-10.15364 33.96744,-18.3848 75.8684,-18.3848 41.90096,0 75.8684,8.23116 75.8684,18.3848 z" />
      <text
         text-anchor="middle"
         x="396"
         y="-91.4"
         font-family="Times Roman,serif"
         font-size="14.00"
         id="text201">GroupBranch</text>
    </g>
    <!-- Group&#45;&gt;GroupBranch -->
    <g
       id="edge20"
       class="edge">
      <title
         id="title204">Group-&gt;GroupBranch</title>
      <path
         fill="none"
         stroke="#e72851"
         d="M558.579,-226.865C550.794,-221.519 542.504,-215.657 535,-210 495.62,-180.314 452.098,-143.64 424.427,-119.805"
         id="path206" />
      <ellipse
         fill="none"
         stroke="#e72851"
         cx="562.243"
         cy="-229.357"
         rx="4.00002"
         ry="4.00002"
         id="ellipse208"
         d="m 566.243,-229.35699 c 0,2.20915 -1.79087,4.00002 -4.00002,4.00002 -2.20915,0 -4.00002,-1.79087 -4.00002,-4.00002 0,-2.20915 1.79087,-4.00002 4.00002,-4.00002 2.20915,0 4.00002,1.79087 4.00002,4.00002 z" />
      <polygon
         fill="#e72851"
         stroke="#e72851"
         points="424.281,-119.68 419.657,-109.736 420.498,-116.41 416.715,-113.141 416.715,-113.141 416.715,-113.141 420.498,-116.41 413.773,-116.546 424.281,-119.68 424.281,-119.68"
         id="polygon210" />
    </g>
    <!-- MessageStatus -->
    <g
       id="node7"
       class="node">
      <title
         id="title213">MessageStatus</title>
      <ellipse
         fill="none"
         stroke="black"
         cx="759"
         cy="-95"
         rx="84.8528"
         ry="18.3848"
         id="ellipse215"
         d="m 843.8528,-95 c 0,10.153645 -37.98989,18.3848 -84.8528,18.3848 -46.86291,0 -84.8528,-8.231155 -84.8528,-18.3848 0,-10.15364 37.98989,-18.3848 84.8528,-18.3848 46.86291,0 84.8528,8.23116 84.8528,18.3848 z" />
      <text
         text-anchor="middle"
         x="759"
         y="-91.4"
         font-family="Times Roman,serif"
         font-size="14.00"
         id="text217">MessageStatus</text>
    </g>
    <!-- UserReport -->
    <g
       id="node8"
       class="node">
      <title
         id="title220">UserReport</title>
      <ellipse
         fill="none"
         stroke="black"
         cx="198"
         cy="-95"
         rx="65.9683"
         ry="18.3848"
         id="ellipse222"
         d="m 263.9683,-95 c 0,10.153645 -29.53501,18.3848 -65.9683,18.3848 -36.43329,0 -65.9683,-8.231155 -65.9683,-18.3848 0,-10.15364 29.53501,-18.3848 65.9683,-18.3848 36.43329,0 65.9683,8.23116 65.9683,18.3848 z" />
      <text
         text-anchor="middle"
         x="198"
         y="-91.4"
         font-family="Times Roman,serif"
         font-size="14.00"
         id="text224">UserReport</text>
    </g>
    <!-- Message&#45;&gt;MessageStatus -->
    <g
       id="edge24"
       class="edge">
      <title
         id="title227">Message-&gt;MessageStatus</title>
      <path
         fill="none"
         stroke="#d71b54"
         d="M629.41,-152.934C654.856,-141.559 687.739,-126.858 714.013,-115.112"
         id="path229" />
      <ellipse
         fill="none"
         stroke="#d71b54"
         cx="625.429"
         cy="-154.714"
         rx="4.00002"
         ry="4.00002"
         id="ellipse231"
         d="m 629.42904,-154.714 c 0,2.20915 -1.79087,4.00002 -4.00002,4.00002 -2.20915,0 -4.00002,-1.79087 -4.00002,-4.00002 0,-2.20915 1.79087,-4.00002 4.00002,-4.00002 2.20915,0 4.00002,1.79087 4.00002,4.00002 z" />
      <ellipse
         fill="#d71b54"
         stroke="#d71b54"
         cx="717.936"
         cy="-113.358"
         rx="4.00002"
         ry="4.00002"
         id="ellipse233"
         d="m 721.93599,-113.358 c 0,2.20915 -1.79087,4.00002 -4.00002,4.00002 -2.20915,0 -4.00002,-1.79087 -4.00002,-4.00002 0,-2.20915 1.79087,-4.00002 4.00002,-4.00002 2.20915,0 4.00002,1.79087 4.00002,4.00002 z" />
    </g>
    <!-- Message&#45;&gt;Message -->
    <g
       id="edge28"
       class="edge">
      <title
         id="title236">Message-&gt;Message</title>
      <path
         fill="none"
         stroke="#fcb785"
         d="M646.308,-177.404C654.498,-176.374 660,-174.239 660,-171 660,-168.025 655.36,-165.982 648.258,-164.87"
         id="path238" />
      <ellipse
         fill="none"
         stroke="#fcb785"
         cx="642.099"
         cy="-177.73"
         rx="4"
         ry="4"
         id="ellipse240"
         d="m 646.099,-177.73 c 0,2.20914 -1.79086,4 -4,4 -2.20914,0 -4,-1.79086 -4,-4 0,-2.20913 1.79086,-4 4,-4 2.20914,0 4,1.79087 4,4 z" />
      <polygon
         fill="#fcb785"
         stroke="#fcb785"
         points="648.071,-164.854 638.513,-159.478 643.091,-164.407 638.111,-163.96 638.111,-163.96 638.111,-163.96 643.091,-164.407 637.709,-168.442 648.071,-164.854 648.071,-164.854"
         id="polygon242" />
      <text
         text-anchor="middle"
         x="695.5"
         y="-167.4"
         font-family="Times Roman,serif"
         font-size="14.00"
         id="text244">comments</text>
    </g>
    <!-- Message&#45;&gt;MessageGroup -->
    <g
       id="edge26"
       class="edge">
      <title
         id="title247">Message-&gt;MessageGroup</title>
      <path
         fill="none"
         stroke="#bd3a37"
         d="M583.395,-144.376C581.99,-137.7 580.476,-130.509 579.05,-123.736"
         id="path249" />
      <ellipse
         fill="none"
         stroke="#bd3a37"
         cx="584.221"
         cy="-148.299"
         rx="4.00001"
         ry="4.00001"
         id="ellipse251"
         d="m 588.22102,-148.299 c 0,2.20915 -1.79087,4.00001 -4.00001,4.00001 -2.20915,0 -4.00001,-1.79086 -4.00001,-4.00001 0,-2.20914 1.79086,-4.00001 4.00001,-4.00001 2.20914,0 4.00001,1.79087 4.00001,4.00001 z" />
      <polygon
         fill="#bd3a37"
         stroke="#bd3a37"
         points="578.97,-123.356 581.313,-112.643 577.94,-118.463 576.91,-113.57 576.91,-113.57 576.91,-113.57 577.94,-118.463 572.506,-114.498 578.97,-123.356 578.97,-123.356"
         id="polygon253" />
    </g>
    <!-- Question -->
    <g
       id="node16"
       class="node">
      <title
         id="title256">Question</title>
      <ellipse
         fill="none"
         stroke="black"
         cx="276"
         cy="-171"
         rx="55.8614"
         ry="18.3848"
         id="ellipse258"
         d="m 331.8614,-171 c 0,10.15364 -25.01,18.3848 -55.8614,18.3848 -30.8514,0 -55.8614,-8.23116 -55.8614,-18.3848 0,-10.15364 25.01,-18.3848 55.8614,-18.3848 30.8514,0 55.8614,8.23116 55.8614,18.3848 z" />
      <text
         text-anchor="middle"
         x="276"
         y="-167.4"
         font-family="Times Roman,serif"
         font-size="14.00"
         id="text260">Question</text>
    </g>
    <!-- Page&#45;&gt;Question -->
    <g
       id="edge30"
       class="edge">
      <title
         id="title263">Page-&gt;Question</title>
      <path
         fill="none"
         stroke="#5a992c"
         d="M440.336,-233.137C407.282,-220.639 358.507,-202.197 322.678,-188.649"
         id="path265" />
      <ellipse
         fill="none"
         stroke="#5a992c"
         cx="444.46"
         cy="-234.696"
         rx="4.00001"
         ry="4.00001"
         id="ellipse267"
         d="m 448.46,-234.696 c 0,2.20915 -1.79086,4.00001 -4.00001,4.00001 -2.20914,0 -4.00001,-1.79086 -4.00001,-4.00001 0,-2.20914 1.79087,-4.00001 4.00001,-4.00001 2.20915,0 4.00001,1.79087 4.00001,4.00001 z" />
      <polygon
         fill="#5a992c"
         stroke="#5a992c"
         points="322.293,-188.504 314.531,-180.758 317.616,-186.736 312.94,-184.967 312.94,-184.967 312.94,-184.967 317.616,-186.736 311.348,-189.176 322.293,-188.504 322.293,-188.504"
         id="polygon269" />
    </g>
    <!-- User&#45;&gt;Response -->
    <g
       id="edge50"
       class="edge">
      <title
         id="title272">User-&gt;Response</title>
      <path
         fill="none"
         stroke="#3d0576"
         d="M602.089,-402.845C594.933,-394.05 585.681,-385.038 575,-380 474.456,-332.574 78,-434.168 78,-323 78,-323 78,-323 78,-171 78,-154.697 73.4552,-137.115 68.5941,-122.972"
         id="path274" />
      <ellipse
         fill="none"
         stroke="#3d0576"
         cx="604.714"
         cy="-406.28"
         rx="4.00002"
         ry="4.00002"
         id="ellipse276"
         d="m 608.71401,-406.28 c 0,2.20915 -1.79087,4.00002 -4.00002,4.00002 -2.20915,0 -4.00002,-1.79087 -4.00002,-4.00002 0,-2.20915 1.79087,-4.00002 4.00002,-4.00002 2.20915,0 4.00002,1.79087 4.00002,4.00002 z" />
      <polygon
         fill="#3d0576"
         stroke="#3d0576"
         points="68.5073,-122.736 69.2831,-111.797 66.7832,-118.042 65.0591,-113.349 65.0591,-113.349 65.0591,-113.349 66.7832,-118.042 60.8351,-114.901 68.5073,-122.736 68.5073,-122.736"
         id="polygon278" />
    </g>
    <!-- User&#45;&gt;Report -->
    <g
       id="edge46"
       class="edge">
      <title
         id="title281">User-&gt;Report</title>
      <path
         fill="none"
         stroke="#c24c5b"
         d="M630.844,-401.312C638.563,-385.874 648.382,-366.236 656.256,-350.488"
         id="path283" />
      <ellipse
         fill="none"
         stroke="#c24c5b"
         cx="628.847"
         cy="-405.307"
         rx="4.00002"
         ry="4.00002"
         id="ellipse285"
         d="m 632.847,-405.30701 c 0,2.20915 -1.79087,4.00002 -4.00002,4.00002 -2.20915,0 -4.00002,-1.79087 -4.00002,-4.00002 0,-2.20915 1.79087,-4.00002 4.00002,-4.00002 2.20915,0 4.00002,1.79087 4.00002,4.00002 z" />
      <polygon
         fill="#c24c5b"
         stroke="#c24c5b"
         points="656.399,-350.201 664.897,-343.269 658.636,-345.729 660.872,-341.257 660.872,-341.257 660.872,-341.257 658.636,-345.729 656.847,-339.244 656.399,-350.201 656.399,-350.201"
         id="polygon287" />
    </g>
    <!-- User&#45;&gt;Group -->
    <g
       id="edge34"
       class="edge">
      <title
         id="title290">User-&gt;Group</title>
      <path
         fill="none"
         stroke="#9ed545"
         d="M608.879,-400.93C601.154,-367.707 591.866,-310.457 588.545,-275.923"
         id="path292" />
      <ellipse
         fill="none"
         stroke="#9ed545"
         cx="609.837"
         cy="-404.864"
         rx="4.00001"
         ry="4.00001"
         id="ellipse294"
         d="m 613.83699,-404.86401 c 0,2.20914 -1.79087,4.00001 -4.00001,4.00001 -2.20915,0 -4.00001,-1.79087 -4.00001,-4.00001 0,-2.20915 1.79086,-4.00001 4.00001,-4.00001 2.20914,0 4.00001,1.79086 4.00001,4.00001 z" />
      <polygon
         fill="#9ed545"
         stroke="#9ed545"
         points="588.513,-275.533 592.17,-265.195 588.099,-270.55 587.686,-265.567 587.686,-265.567 587.686,-265.567 588.099,-270.55 583.201,-265.94 588.513,-275.533 588.513,-275.533"
         id="polygon296" />
    </g>
    <!-- User&#45;&gt;UserReport -->
    <g
       id="edge52"
       class="edge">
      <title
         id="title299">User-&gt;UserReport</title>
      <path
         fill="none"
         stroke="#35d558"
         d="M601.507,-402.971C594.361,-394.371 585.271,-385.462 575,-380 499.027,-339.596 192,-409.049 192,-323 192,-323 192,-323 192,-171 192,-155.39 193.273,-138.033 194.647,-123.851"
         id="path301" />
      <ellipse
         fill="none"
         stroke="#35d558"
         cx="604.108"
         cy="-406.281"
         rx="4.00002"
         ry="4.00002"
         id="ellipse303"
         d="m 608.10799,-406.28101 c 0,2.20915 -1.79087,4.00002 -4.00002,4.00002 -2.20915,0 -4.00002,-1.79087 -4.00002,-4.00002 0,-2.20915 1.79087,-4.00002 4.00002,-4.00002 2.20915,0 4.00002,1.79087 4.00002,4.00002 z" />
      <polygon
         fill="#35d558"
         stroke="#35d558"
         points="194.667,-123.654 200.173,-114.171 195.182,-118.681 195.697,-113.707 195.697,-113.707 195.697,-113.707 195.182,-118.681 191.221,-113.244 194.667,-123.654 194.667,-123.654"
         id="polygon305" />
    </g>
    <!-- User&#45;&gt;Message -->
    <g
       id="edge32"
       class="edge">
      <title
         id="title308">User-&gt;Message</title>
      <path
         fill="none"
         stroke="#35edbc"
         d="M651.059,-410.681C675.942,-396.377 708.202,-373.019 723,-342 730.272,-326.757 729.492,-319.591 723,-304 702.932,-255.807 655.969,-216.101 623.343,-192.975"
         id="path310" />
      <ellipse
         fill="none"
         stroke="#35edbc"
         cx="647.425"
         cy="-412.705"
         rx="4.00002"
         ry="4.00002"
         id="ellipse312"
         d="m 651.42501,-412.70499 c 0,2.20915 -1.79087,4.00002 -4.00002,4.00002 -2.20915,0 -4.00002,-1.79087 -4.00002,-4.00002 0,-2.20915 1.79087,-4.00002 4.00002,-4.00002 2.20915,0 4.00002,1.79087 4.00002,4.00002 z" />
      <polygon
         fill="#35edbc"
         stroke="#35edbc"
         points="623.191,-192.87 617.53,-183.479 619.08,-190.024 614.969,-187.178 614.969,-187.178 614.969,-187.178 619.08,-190.024 612.408,-190.878 623.191,-192.87 623.191,-192.87"
         id="polygon314" />
    </g>
    <!-- User&#45;&gt;GroupsUser -->
    <g
       id="edge36"
       class="edge">
      <title
         id="title317">User-&gt;GroupsUser</title>
      <path
         fill="none"
         stroke="#2bf3d0"
         d="M650.733,-410.729C673.09,-398.82 702.756,-381.403 726,-362 787.303,-310.826 845.823,-236.651 874.906,-197.5"
         id="path319" />
      <ellipse
         fill="none"
         stroke="#2bf3d0"
         cx="646.993"
         cy="-412.693"
         rx="4.00002"
         ry="4.00002"
         id="ellipse321"
         d="m 650.993,-412.69299 c 0,2.20915 -1.79087,4.00002 -4.00002,4.00002 -2.20915,0 -4.00002,-1.79087 -4.00002,-4.00002 0,-2.20915 1.79087,-4.00002 4.00002,-4.00002 2.20915,0 4.00002,1.79087 4.00002,4.00002 z" />
      <polygon
         fill="#2bf3d0"
         stroke="#2bf3d0"
         points="875.057,-197.294 884.611,-191.912 878.023,-193.269 880.988,-189.243 880.988,-189.243 880.988,-189.243 878.023,-193.269 877.365,-186.574 875.057,-197.294 875.057,-197.294"
         id="polygon323" />
    </g>
    <!-- User&#45;&gt;User -->
    <g
       id="edge38"
       class="edge">
      <title
         id="title326">User-&gt;User</title>
      <path
         fill="none"
         stroke="#b9ac34"
         d="M658.393,-432.77C665.253,-431.976 670,-430.053 670,-427 670,-424.272 666.209,-422.446 660.508,-421.522"
         id="path328" />
      <ellipse
         fill="none"
         stroke="#b9ac34"
         cx="654.24"
         cy="-432.982"
         rx="4"
         ry="4"
         id="ellipse330"
         d="m 658.23999,-432.98199 c 0,2.20913 -1.79086,4 -4,4 -2.20914,0 -4,-1.79087 -4,-4 0,-2.20914 1.79086,-4 4,-4 2.20914,0 4,1.79086 4,4 z" />
      <polygon
         fill="#b9ac34"
         stroke="#b9ac34"
         points="660.222,-421.502 650.556,-416.324 655.234,-421.158 650.246,-420.813 650.246,-420.813 650.246,-420.813 655.234,-421.158 649.935,-425.302 660.222,-421.502 660.222,-421.502"
         id="polygon332" />
      <text
         text-anchor="middle"
         x="692.5"
         y="-423.4"
         font-family="Times Roman,serif"
         font-size="14.00"
         id="text334">clients</text>
    </g>
    <!-- User&#45;&gt;User -->
    <g
       id="edge40"
       class="edge">
      <title
         id="title337">User-&gt;User</title>
      <path
         fill="none"
         stroke="#3a3715"
         d="M648.429,-443.332C678.24,-450.987 715,-445.543 715,-427 715,-408.851 679.787,-403.25 650.341,-410.197"
         id="path339" />
      <ellipse
         fill="none"
         stroke="#3a3715"
         cx="644.463"
         cy="-442.128"
         rx="4.00001"
         ry="4.00001"
         id="ellipse341"
         d="m 648.46302,-442.12799 c 0,2.20914 -1.79086,4.00001 -4.00001,4.00001 -2.20914,0 -4.00001,-1.79087 -4.00001,-4.00001 0,-2.20915 1.79087,-4.00001 4.00001,-4.00001 2.20915,0 4.00001,1.79086 4.00001,4.00001 z" />
      <polygon
         fill="#3a3715"
         stroke="#3a3715"
         points="650.234,-410.228 639.373,-408.714 645.435,-411.631 640.635,-413.033 640.635,-413.033 640.635,-413.033 645.435,-411.631 641.898,-417.353 650.234,-410.228 650.234,-410.228"
         id="polygon343" />
      <text
         text-anchor="middle"
         x="751.5"
         y="-423.4"
         font-family="Times Roman,serif"
         font-size="14.00"
         id="text345">employees</text>
    </g>
    <!-- EmployeeLocation -->
    <g
       id="node17"
       class="node">
      <title
         id="title348">EmployeeLocation</title>
      <ellipse
         fill="none"
         stroke="black"
         cx="963"
         cy="-323"
         rx="99.9096"
         ry="18.3848"
         id="ellipse350"
         d="m 1062.9096,-323 c 0,10.15364 -44.7311,18.3848 -99.9096,18.3848 -55.17855,0 -99.9096,-8.23116 -99.9096,-18.3848 0,-10.15364 44.73105,-18.3848 99.9096,-18.3848 55.1785,0 99.9096,8.23116 99.9096,18.3848 z" />
      <text
         text-anchor="middle"
         x="963"
         y="-319.4"
         font-family="Times Roman,serif"
         font-size="14.00"
         id="text352">EmployeeLocation</text>
    </g>
    <!-- User&#45;&gt;EmployeeLocation -->
    <g
       id="edge48"
       class="edge">
      <title
         id="title355">User-&gt;EmployeeLocation</title>
      <path
         fill="none"
         stroke="#b1a115"
         d="M656.726,-416.806C702.768,-404.524 781.833,-382.922 849,-362 868.133,-356.04 888.91,-349.08 907.423,-342.702"
         id="path357" />
      <ellipse
         fill="none"
         stroke="#b1a115"
         cx="652.665"
         cy="-417.886"
         rx="4.00001"
         ry="4.00001"
         id="ellipse359"
         d="m 656.66499,-417.88599 c 0,2.20915 -1.79087,4.00001 -4.00001,4.00001 -2.20915,0 -4.00001,-1.79086 -4.00001,-4.00001 0,-2.20914 1.79086,-4.00001 4.00001,-4.00001 2.20914,0 4.00001,1.79087 4.00001,4.00001 z" />
      <polygon
         fill="#b1a115"
         stroke="#b1a115"
         points="907.427,-342.7 918.349,-343.68 912.151,-341.064 916.876,-339.428 916.876,-339.428 916.876,-339.428 912.151,-341.064 915.403,-335.176 907.427,-342.7 907.427,-342.7"
         id="polygon361" />
    </g>
    <!-- User&#45;&gt;Branch -->
    <g
       id="edge42"
       class="edge">
      <title
         id="title364">User-&gt;Branch</title>
      <path
         fill="none"
         stroke="#80c953"
         d="M597.872,-403.591C590.875,-395.84 582.816,-387.328 575,-380 515.956,-324.648 480.869,-331.259 433,-266 418.291,-245.947 408.582,-219.288 402.816,-199.316"
         id="path366" />
      <ellipse
         fill="none"
         stroke="#80c953"
         cx="600.812"
         cy="-406.892"
         rx="4.00002"
         ry="4.00002"
         id="ellipse368"
         d="m 604.81203,-406.892 c 0,2.20915 -1.79087,4.00002 -4.00002,4.00002 -2.20915,0 -4.00002,-1.79087 -4.00002,-4.00002 0,-2.20915 1.79087,-4.00002 4.00002,-4.00002 2.20915,0 4.00002,1.79087 4.00002,4.00002 z" />
      <polygon
         fill="#80c953"
         stroke="#80c953"
         points="402.784,-199.199 404.496,-188.368 401.469,-194.375 400.154,-189.551 400.154,-189.551 400.154,-189.551 401.469,-194.375 395.812,-190.735 402.784,-199.199 402.784,-199.199"
         id="polygon370" />
    </g>
    <!-- Administrator -->
    <g
       id="node19"
       class="node">
      <title
         id="title373">Administrator</title>
      <ellipse
         fill="none"
         stroke="black"
         cx="1159"
         cy="-323"
         rx="77.9889"
         ry="18.3848"
         id="ellipse375"
         d="m 1236.9889,-323 c 0,10.15364 -34.9168,18.3848 -77.9889,18.3848 -43.0721,0 -77.9889,-8.23116 -77.9889,-18.3848 0,-10.15364 34.9168,-18.3848 77.9889,-18.3848 43.0721,0 77.9889,8.23116 77.9889,18.3848 z" />
      <text
         text-anchor="middle"
         x="1159"
         y="-319.4"
         font-family="Times Roman,serif"
         font-size="14.00"
         id="text377">Administrator</text>
    </g>
    <!-- User&#45;&gt;Administrator -->
    <g
       id="edge44"
       class="edge">
      <title
         id="title380">User-&gt;Administrator</title>
      <path
         fill="none"
         stroke="#117336"
         d="M656.599,-416.734C696.16,-406.462 759.56,-390.691 815,-380 928.375,-358.137 958.42,-362.774 1072,-342 1078.64,-340.785 1085.55,-339.432 1092.44,-338.023"
         id="path382" />
      <ellipse
         fill="none"
         stroke="#117336"
         cx="652.401"
         cy="-417.829"
         rx="4.00001"
         ry="4.00001"
         id="ellipse384"
         d="m 656.40101,-417.82901 c 0,2.20914 -1.79086,4.00001 -4.00001,4.00001 -2.20914,0 -4.00001,-1.79087 -4.00001,-4.00001 0,-2.20914 1.79087,-4.00001 4.00001,-4.00001 2.20915,0 4.00001,1.79087 4.00001,4.00001 z" />
      <polygon
         fill="#117336"
         stroke="#117336"
         points="1092.7,-337.969 1103.4,-340.333 1097.59,-336.949 1102.49,-335.928 1102.49,-335.928 1102.49,-335.928 1097.59,-336.949 1101.57,-331.523 1092.7,-337.969 1092.7,-337.969"
         id="polygon386" />
    </g>
    <!-- Location -->
    <g
       id="node15"
       class="node">
      <title
         id="title389">Location</title>
      <ellipse
         fill="none"
         stroke="black"
         cx="877"
         cy="-427"
         rx="53.033"
         ry="18.3848"
         id="ellipse391"
         d="m 930.033,-427 c 0,10.15364 -23.74368,18.3848 -53.033,18.3848 -29.28932,0 -53.033,-8.23116 -53.033,-18.3848 0,-10.15364 23.74368,-18.3848 53.033,-18.3848 29.28932,0 53.033,8.23116 53.033,18.3848 z" />
      <text
         text-anchor="middle"
         x="877"
         y="-423.4"
         font-family="Times Roman,serif"
         font-size="14.00"
         id="text393">Location</text>
    </g>
    <!-- Question&#45;&gt;Response -->
    <g
       id="edge54"
       class="edge">
      <title
         id="title396">Question-&gt;Response</title>
      <path
         fill="none"
         stroke="#3fdcd1"
         d="M229.646,-154.914C193.201,-142.266 142.578,-124.698 105.573,-111.856"
         id="path398" />
      <ellipse
         fill="none"
         stroke="#3fdcd1"
         cx="233.572"
         cy="-156.276"
         rx="4.00001"
         ry="4.00001"
         id="ellipse400"
         d="m 237.57202,-156.276 c 0,2.20914 -1.79087,4.00001 -4.00001,4.00001 -2.20915,0 -4.00001,-1.79087 -4.00001,-4.00001 0,-2.20915 1.79086,-4.00001 4.00001,-4.00001 2.20914,0 4.00001,1.79086 4.00001,4.00001 z" />
      <polygon
         fill="#3fdcd1"
         stroke="#3fdcd1"
         points="105.446,-111.812 97.4743,-104.283 100.723,-110.173 95.999,-108.534 95.999,-108.534 95.999,-108.534 100.723,-110.173 94.5236,-112.785 105.446,-111.812 105.446,-111.812"
         id="polygon402" />
    </g>
    <!-- Branch&#45;&gt;Response -->
    <g
       id="edge58"
       class="edge">
      <title
         id="title405">Branch-&gt;Response</title>
      <path
         fill="none"
         stroke="#b51082"
         d="M352.612,-155.295C348.709,-154.1 344.798,-152.98 341,-152 245.771,-127.42 218.839,-136.08 123,-114 118.309,-112.919 113.456,-111.707 108.608,-110.431"
         id="path407" />
      <polygon
         fill="#b51082"
         stroke="#b51082"
         points="352.705,-155.325 360.85,-162.667 357.465,-156.854 362.226,-158.382 362.226,-158.382 362.226,-158.382 357.465,-156.854 363.602,-154.098 352.705,-155.325 352.705,-155.325"
         id="polygon409" />
      <polygon
         fill="#b51082"
         stroke="#b51082"
         points="108.371,-110.366 99.8998,-103.403 103.545,-109.056 98.7203,-107.745 98.7203,-107.745 98.7203,-107.745 103.545,-109.056 97.5408,-112.088 108.371,-110.366 108.371,-110.366"
         id="polygon411" />
    </g>
    <!-- Branch&#45;&gt;BranchResponse -->
    <g
       id="edge56"
       class="edge">
      <title
         id="title414">Branch-&gt;BranchResponse</title>
      <path
         fill="none"
         stroke="#b40616"
         d="M362.26,-151.185C346.051,-140.98 326.771,-127.798 311,-114 287.077,-93.0713 263.421,-65.5334 247.339,-45.4974"
         id="path416" />
      <ellipse
         fill="none"
         stroke="#b40616"
         cx="366.068"
         cy="-153.548"
         rx="4.00002"
         ry="4.00002"
         id="ellipse418"
         d="m 370.06801,-153.548 c 0,2.20915 -1.79087,4.00002 -4.00002,4.00002 -2.20915,0 -4.00002,-1.79087 -4.00002,-4.00002 0,-2.20915 1.79087,-4.00002 4.00002,-4.00002 2.20915,0 4.00002,1.79087 4.00002,4.00002 z" />
      <polygon
         fill="#b40616"
         stroke="#b40616"
         points="247.143,-45.249 244.459,-34.6164 244.037,-41.33 240.932,-37.4111 240.932,-37.4111 240.932,-37.4111 244.037,-41.33 237.405,-40.2057 247.143,-45.249 247.143,-45.249"
         id="polygon420" />
    </g>
    <!-- Branch&#45;&gt;UserReport -->
    <g
       id="edge64"
       class="edge">
      <title
         id="title423">Branch-&gt;UserReport</title>
      <path
         fill="none"
         stroke="#0fa30d"
         d="M353.775,-156.154C349.471,-154.718 345.155,-153.31 341,-152 313.228,-143.243 305.192,-144.42 278,-134 264.532,-128.839 250.25,-122.257 237.537,-115.975"
         id="path425" />
      <ellipse
         fill="none"
         stroke="#0fa30d"
         cx="357.685"
         cy="-157.473"
         rx="4.00001"
         ry="4.00001"
         id="ellipse427"
         d="m 361.68501,-157.47301 c 0,2.20915 -1.79087,4.00001 -4.00001,4.00001 -2.20915,0 -4.00001,-1.79086 -4.00001,-4.00001 0,-2.20914 1.79086,-4.00001 4.00001,-4.00001 2.20914,0 4.00001,1.79087 4.00001,4.00001 z" />
      <polygon
         fill="#0fa30d"
         stroke="#0fa30d"
         points="237.527,-115.97 230.613,-107.459 233.059,-113.725 228.592,-111.48 228.592,-111.48 228.592,-111.48 233.059,-113.725 226.571,-115.5 237.527,-115.97 237.527,-115.97"
         id="polygon429" />
    </g>
    <!-- Branch&#45;&gt;GroupReport -->
    <g
       id="edge62"
       class="edge">
      <title
         id="title432">Branch-&gt;GroupReport</title>
      <path
         fill="none"
         stroke="#2279fd"
         d="M447.032,-163.26C471.243,-159.675 500.59,-155.454 527,-152 671.638,-133.085 709.246,-138.756 853,-114 859.558,-112.871 866.376,-111.551 873.16,-110.143"
         id="path434" />
      <ellipse
         fill="none"
         stroke="#2279fd"
         cx="442.986"
         cy="-163.861"
         rx="4.00001"
         ry="4.00001"
         id="ellipse436"
         d="m 446.986,-163.86099 c 0,2.20914 -1.79086,4.00001 -4.00001,4.00001 -2.20914,0 -4.00001,-1.79087 -4.00001,-4.00001 0,-2.20915 1.79087,-4.00001 4.00001,-4.00001 2.20915,0 4.00001,1.79086 4.00001,4.00001 z" />
      <polygon
         fill="#2279fd"
         stroke="#2279fd"
         points="873.262,-110.121 883.982,-112.429 878.151,-109.075 883.04,-108.028 883.04,-108.028 883.04,-108.028 878.151,-109.075 882.098,-103.628 873.262,-110.121 873.262,-110.121"
         id="polygon438" />
    </g>
    <!-- Branch&#45;&gt;GroupBranch -->
    <g
       id="edge60"
       class="edge">
      <title
         id="title441">Branch-&gt;GroupBranch</title>
      <path
         fill="none"
         stroke="#0bbf8b"
         d="M396,-144.073C396,-137.449 396,-130.332 396,-123.63"
         id="path443" />
      <ellipse
         fill="none"
         stroke="#0bbf8b"
         cx="396"
         cy="-148.213"
         rx="4"
         ry="4"
         id="ellipse445"
         d="m 400,-148.213 c 0,2.20914 -1.79086,4 -4,4 -2.20914,0 -4,-1.79086 -4,-4 0,-2.20914 1.79086,-4 4,-4 2.20914,0 4,1.79086 4,4 z" />
      <polygon
         fill="#0bbf8b"
         stroke="#0bbf8b"
         points="396,-123.57 400.5,-113.57 396,-118.57 396,-113.57 396,-113.57 396,-113.57 396,-118.57 391.5,-113.57 396,-123.57 396,-123.57"
         id="polygon447" />
    </g>
  </g>
</svg>
